# xmcd
#
# Track frame offsets:
# 182
# 16485
# 30725
# 47462
# 61580
# 80715
# 93887
# 112065
# 132865
# 148675
#
# Disc length: 2174 seconds
#
#
# Revision: 5
# Processed by: cddbd v1.5.2PL0 Copyright (c) Steve Scherf et al.
# Submitted via: FreeRIP 2.51 
#
DISCID=7e087c0a
DTITLE=Gill, Vince - When I call your name
DYEAR=1989
DGENRE=Country
TTITLE0=Never alone
TTITLE1=Sight for sore eyes
TTITLE2=Oh girl (you know where to find me)
TTITLE3=Oklahoma swing (with Reba McEntire)
TTITLE4=When I call your name
TTITLE5=Ridin' the rodeo
TTITLE6=Never knew lonely
TTITLE7=We won't dance
TTITLE8=We could have been
TTITLE9=Rita Ballou
EXTD=YEAR: 1989
EXTT0=
EXTT1=
EXTT2=
EXTT3=
EXTT4=
EXTT5=
EXTT6=
EXTT7=
EXTT8=
EXTT9=
PLAYORDER=
